<svg height="100%" viewBox="0 0 1024 1024" version="1.1" xmlns="http://www.w3.org/2000/svg" xmlns:xlink="http://www.w3.org/1999/xlink" xml:space="preserve" xmlns:serif="http://www.serif.com/" style="fill-rule:evenodd;clip-rule:evenodd;stroke-linejoin:round;stroke-miterlimit:2;">
    <g transform="matrix(1,0,0,1,-2247.76,0)">
        <g id="crosshair" transform="matrix(1,0,0,1,2247.76,0)">
            <g clip-path="url(#_clip1)">
                <g id="_-1a1a1cff" serif:id="#1a1a1cff" transform="matrix(1,0,0,1,167.501,142.951)">
                    <g transform="matrix(3.24559,0,0,3.24559,-554.554,-426.932)">
                        <path d="M267.24,87.51C273.83,87.49 280.41,87.5 287,87.5C286.99,90.91 287,94.31 287.03,97.72C324.9,100.11 361.43,117.94 386.82,146.08C400.37,161.41 411.19,179.31 417.47,198.83C421.56,210.61 423.63,222.99 424.7,235.38C428.05,235.37 431.4,235.38 434.76,235.36C434.74,241.96 434.76,248.55 434.75,255.15C431.36,255.12 427.97,255.12 424.58,255.13C422.03,299.3 398,341.46 361.59,366.5C339.78,381.96 313.62,390.94 287,392.83L287,403C280.41,403 273.83,403.01 267.24,402.99C267.25,399.56 267.25,396.13 267.24,392.71C230.57,390.6 195.06,373.76 169.97,346.98C146.22,322.41 131.74,289.2 129.55,255.11C126.15,255.12 122.76,255.12 119.37,255.16C119.41,248.58 119.3,242 119.44,235.43C122.8,235.36 126.16,235.36 129.52,235.37C131.31,210.22 139.3,185.41 153.37,164.43C170.11,138.49 195.35,118.24 224.14,107.16C237.92,101.83 252.52,98.76 267.25,97.68C267.25,94.29 267.25,90.9 267.24,87.51M178.05,164.02C161.45,184.1 151.19,209.41 149.38,235.41C165.69,235.33 182,235.41 198.31,235.36C198.19,241.94 198.29,248.53 198.25,255.11C181.93,255.15 165.62,255.1 149.3,255.14C151.42,282.9 162.86,309.84 181.5,330.53C186.53,335.52 191.24,340.89 196.93,345.15C216.77,361.38 241.75,370.98 267.24,373.05C267.27,356.75 267.23,340.45 267.26,324.14C273.84,324.11 280.42,324.13 286.99,324.13C287.01,340.43 287,356.74 287,373.05C322.27,370.46 355.93,352.36 377.71,324.53C393.43,304.82 402.94,280.27 404.82,255.14C388.55,255.11 372.28,255.14 356.01,255.12C356,248.54 355.99,241.95 356.01,235.37C372.26,235.42 388.51,235.3 404.76,235.43C402.99,208.16 391.69,181.75 373.76,161.19C352.08,135.98 320.17,119.91 287,117.44C287,133.75 287.01,150.06 286.99,166.37C280.41,166.4 273.82,166.31 267.23,166.43C267.26,150.1 267.26,133.77 267.23,117.44C232.82,119.99 199.75,137.18 178.05,164.02Z" style="fill:rgb(26,26,28);fill-rule:nonzero;"/>
                    </g>
                    <g transform="matrix(3.24559,0,0,3.24559,-554.554,-426.932)">
                        <path d="M272.23,186.29C285.33,185.26 298.88,188.49 309.75,195.98C323.57,205.18 333.46,220.33 335.62,236.87C337.52,249.72 335,263.2 328.51,274.45C319.69,290.33 303.08,301.47 285.11,303.87C262.24,307.2 237.94,295.69 226.35,275.63C218.1,262.16 215.89,245.26 219.89,230.02C224.07,214.69 234.55,201.1 248.52,193.46C255.77,189.38 263.96,187.05 272.23,186.29M270.3,206.34C259.8,208.2 250.16,214.46 244.34,223.41C238.42,231.97 236.33,243 238.47,253.16C240.59,263.73 247.24,273.45 256.6,278.89C265.22,284.35 276.04,285.96 285.94,283.66C295.94,281.43 304.85,275.02 310.39,266.44C314.96,259.25 317.09,250.56 316.39,242.07C315.57,230.44 309.11,219.41 299.52,212.82C291.17,206.85 280.37,204.77 270.3,206.34Z" style="fill:rgb(26,26,28);fill-rule:nonzero;"/>
                    </g>
                </g>
            </g>
        </g>
    </g>
</svg>
