<?xml version="1.0" encoding="UTF-8" standalone="no"?>
<!-- Created with Inkscape (http://www.inkscape.org/) -->

<svg
   xmlns:dc="http://purl.org/dc/elements/1.1/"
   xmlns:cc="http://creativecommons.org/ns#"
   xmlns:rdf="http://www.w3.org/1999/02/22-rdf-syntax-ns#"
   xmlns:svg="http://www.w3.org/2000/svg"
   xmlns="http://www.w3.org/2000/svg"
   xmlns:sodipodi="http://sodipodi.sourceforge.net/DTD/sodipodi-0.dtd"
   xmlns:inkscape="http://www.inkscape.org/namespaces/inkscape"
   width="20.372917mm"
   height="20.490889mm"
   viewBox="0 0 20.372917 20.490889"
   version="1.1"
   id="svg8"
   inkscape:version="0.92.4 (5da689c313, 2019-01-14)"
   sodipodi:docname="gear.svg">
  <defs
     id="defs2" />
  <sodipodi:namedview
     id="base"
     pagecolor="#ffffff"
     bordercolor="#666666"
     borderopacity="1.0"
     inkscape:pageopacity="0.0"
     inkscape:pageshadow="2"
     inkscape:zoom="2.8"
     inkscape:cx="122.30564"
     inkscape:cy="19.426302"
     inkscape:document-units="mm"
     inkscape:current-layer="layer1"
     showgrid="false"
     inkscape:window-width="1440"
     inkscape:window-height="847"
     inkscape:window-x="1358"
     inkscape:window-y="-8"
     inkscape:window-maximized="1" />
  <metadata
     id="metadata5">
    <rdf:RDF>
      <cc:Work
         rdf:about="">
        <dc:format>image/svg+xml</dc:format>
        <dc:type
           rdf:resource="http://purl.org/dc/dcmitype/StillImage" />
        <dc:title></dc:title>
      </cc:Work>
    </rdf:RDF>
  </metadata>
  <g
     inkscape:label="Layer 1"
     inkscape:groupmode="layer"
     id="layer1"
     transform="translate(-95.295922,-173.6735)">
    <path
       style="fill:#060606;stroke-width:0.26458332"
       d="m 104.87586,194.01343 c -0.10316,-0.10315 -0.18755,-0.40164 -0.18755,-0.66331 0,-0.98818 -1.8588,-1.28343 -2.21622,-0.35201 -0.1893,0.49331 -1.12166,0.50431 -1.30926,0.0155 -0.0784,-0.20425 -0.0799,-0.61086 -0.003,-0.90358 0.1804,-0.68982 -1.09029,-1.62015 -1.564786,-1.14565 -0.167152,0.16715 -0.577758,0.30391 -0.912456,0.30391 -0.458611,0 -0.608541,-0.14993 -0.608541,-0.60854 0,-0.3347 0.136761,-0.7453 0.303914,-0.91245 0.474496,-0.4745 -0.45583,-1.74519 -1.145653,-1.56479 -1.239122,0.32403 -1.725842,-0.64386 -0.745761,-1.48303 0.291041,-0.2492 0.529166,-0.61009 0.529166,-0.80199 0,-0.53579 -0.602145,-1.18882 -1.190625,-1.29123 -0.361663,-0.0629 -0.529166,-0.29917 -0.529166,-0.7463 0,-0.44713 0.167503,-0.68336 0.529166,-0.7463 0.58848,-0.10241 1.190625,-0.75544 1.190625,-1.29123 0,-0.1919 -0.238125,-0.55279 -0.529166,-0.80199 -0.980081,-0.83917 -0.493361,-1.80706 0.745761,-1.48303 0.689823,0.1804 1.620149,-1.09029 1.145653,-1.56479 -0.167153,-0.16715 -0.303914,-0.57775 -0.303914,-0.91245 0,-0.45861 0.14993,-0.60854 0.608541,-0.60854 0.334698,0 0.745304,0.13676 0.912456,0.30391 0.474496,0.4745 1.745186,-0.45583 1.564786,-1.14565 -0.32403,-1.23912 0.64386,-1.72584 1.48303,-0.74576 0.2492,0.29104 0.61009,0.52916 0.80199,0.52916 0.53579,0 1.18882,-0.60214 1.29123,-1.19062 0.0629,-0.36166 0.29917,-0.52917 0.7463,-0.52917 0.44713,0 0.68336,0.16751 0.7463,0.52917 0.10241,0.58848 0.75544,1.19062 1.29123,1.19062 0.1919,0 0.55279,-0.23812 0.80199,-0.52916 0.83917,-0.98008 1.80706,-0.49336 1.48302,0.74576 -0.18039,0.68982 1.0903,1.62015 1.5648,1.14565 0.16715,-0.16715 0.57775,-0.30391 0.91245,-0.30391 0.45861,0 0.60854,0.14993 0.60854,0.60854 0,0.3347 -0.13676,0.7453 -0.30391,0.91245 -0.4745,0.4745 0.45583,1.74519 1.14565,1.56479 1.23912,-0.32403 1.72584,0.64386 0.74576,1.48303 -0.29104,0.2492 -0.52916,0.61009 -0.52916,0.80199 0,0.53579 0.60214,1.18882 1.19062,1.29123 0.36166,0.0629 0.52917,0.29917 0.52917,0.7463 0,0.44713 -0.16751,0.68336 -0.52917,0.7463 -0.58848,0.10241 -1.19062,0.75544 -1.19062,1.29123 0,0.1919 0.23812,0.55279 0.52916,0.80199 0.98008,0.83917 0.49336,1.80706 -0.74576,1.48303 -0.68982,-0.1804 -1.62015,1.09029 -1.14565,1.56479 0.16715,0.16715 0.30391,0.57775 0.30391,0.91245 0,0.45861 -0.14993,0.60854 -0.60854,0.60854 -0.3347,0 -0.7453,-0.13676 -0.91245,-0.30391 -0.4745,-0.4745 -1.74519,0.45583 -1.5648,1.14565 0.32404,1.23912 -0.64385,1.72584 -1.48302,0.74576 -0.2492,-0.29104 -0.61009,-0.52916 -0.80199,-0.52916 -0.53614,0 -1.18896,0.60238 -1.29031,1.19062 -0.0905,0.52504 -0.99351,0.85615 -1.35342,0.49623 z m -0.18755,-5.45872 c 0,-1.58197 -0.0349,-1.67064 -0.78802,-2.00402 -0.71701,-0.31738 -0.91066,-0.28205 -2.14942,0.39217 l -1.36141,0.74097 1.07764,0.95633 c 0.90146,0.79997 2.11459,1.41912 3.02277,1.54274 0.10914,0.0149 0.19844,-0.71783 0.19844,-1.62819 z m 3.60021,0.9521 c 0.45215,-0.2088 1.13948,-0.71094 1.52741,-1.11584 l 0.70532,-0.7362 -1.33471,-0.72644 c -1.21251,-0.65993 -1.40686,-0.69451 -2.12272,-0.37764 -0.75444,0.33395 -0.78801,0.42009 -0.78801,2.02185 0,1.85748 0.007,1.86063 2.01271,0.93427 z m -5.982,-5.6469 c 0,-0.83582 -0.12892,-0.99845 -1.32326,-1.66925 l -1.323266,-0.74322 -0.263969,0.69429 c -0.145183,0.38186 -0.263969,1.15504 -0.263969,1.71818 0,0.56314 0.118786,1.33632 0.263969,1.71818 l 0.263969,0.69429 1.323266,-0.74322 c 1.19434,-0.6708 1.32326,-0.83343 1.32326,-1.66925 z m 9.46007,0.47233 c 0.0616,-0.7691 -0.0173,-1.73282 -0.17529,-2.14158 l -0.28718,-0.74322 -1.32326,0.74322 c -1.19478,0.67105 -1.32319,0.83312 -1.32246,1.66925 7.2e-4,0.82796 0.13381,1.00143 1.2565,1.63778 0.75152,0.42596 1.35288,0.61561 1.49774,0.47233 0.13312,-0.13167 0.2924,-0.86867 0.35395,-1.63778 z m -5.35849,-0.47233 c 0,-0.88194 -0.0441,-0.92604 -0.92604,-0.92604 -0.76756,0 -0.94095,0.10518 -1.01312,0.61455 -0.14982,1.05752 0.13862,1.41105 1.07744,1.32058 0.79261,-0.0764 0.86172,-0.15731 0.86172,-1.00909 z m -2.43607,-2.71198 c 0.6627,-0.30777 0.71229,-0.44678 0.71421,-2.0022 0.002,-1.61058 -0.0196,-1.66494 -0.59325,-1.49193 -1.2172,0.36712 -2.25948,0.95972 -2.94326,1.67343 l -0.70376,0.73458 1.26127,0.70199 c 1.48125,0.82442 1.36075,0.80398 2.26479,0.38413 z m 5.25059,-0.37607 1.29863,-0.70681 -0.70532,-0.7362 c -0.68517,-0.71516 -1.72692,-1.30772 -2.94481,-1.67505 -0.57358,-0.17299 -0.59531,-0.11839 -0.59531,1.49533 0,1.47317 0.0717,1.71039 0.59531,1.96972 0.87373,0.43273 0.93569,0.42359 2.3515,-0.34699 z"
       id="path830"
       inkscape:connector-curvature="0" />
  </g>
</svg>
