<svg width="100%" height="100%" viewBox="0 0 1024 1024" version="1.1" xmlns="http://www.w3.org/2000/svg" xmlns:xlink="http://www.w3.org/1999/xlink" xml:space="preserve" xmlns:serif="http://www.serif.com/" style="fill-rule:evenodd;clip-rule:evenodd;stroke-linejoin:round;stroke-miterlimit:2;">
	<g transform="matrix(1,0,0,1,-1118.19,0)">
		<g id="green" transform="matrix(1,0,0,1,1118.19,0)">
			<rect x="0" y="0" width="1024" height="1024" style="fill:none;"/>
			<clipPath id="_clip1">
				<rect x="0" y="0" width="1024" height="1024"/>
			</clipPath>
			<g clip-path="url(#_clip1)">
				<g transform="matrix(6.43735,0,0,6.43735,-4111.71,-737.812)">
					<path d="M706.42,115.51C723.22,112.94 740.85,115.94 755.83,123.99C768.01,130.7 778.57,140.41 785.86,152.28C796.85,169.47 800.26,191.05 796.06,210.93C791.87,230.49 780.03,248.38 763.42,259.6C752.7,267.14 740.03,271.83 727,273.2C706.81,275.61 685.88,269.64 669.79,257.26C660.33,249.56 652.07,240.17 646.78,229.1C637.66,210.65 636.23,188.59 642.78,169.1C651.74,141.19 677.36,119.52 706.42,115.51M707.35,135.5C695.06,137.64 683.75,144.12 675.05,152.97C661.9,166.68 655.96,186.88 659.68,205.52C661.99,216.93 667.45,227.97 675.98,236C691.08,252.15 715.87,257.88 736.74,250.9C752.49,245.83 765.81,233.89 772.61,218.81C778.61,205.76 779.52,190.5 775.37,176.77C770.61,161.16 759.15,147.77 744.52,140.58C733.13,134.9 719.85,133.16 707.35,135.5Z" style="fill:rgb(51,185,17);fill-rule:nonzero;"/>
				</g>
				<g transform="matrix(6.43735,0,0,6.43735,-4111.71,-737.812)">
					<path d="M708.2,205.07C722.5,190.8 736.76,176.48 751.08,162.22C755.77,166.9 760.46,171.59 765.14,176.28C746.13,195.22 727.21,214.25 708.18,233.18C697.58,222.58 686.98,211.97 676.37,201.37C681.06,196.66 685.74,191.94 690.49,187.28C696.32,193.28 702.31,199.13 708.2,205.07Z" style="fill:rgb(51,185,17);fill-rule:nonzero;"/>
				</g>
			</g>
		</g>
	</g>
</svg>