<?xml version="1.0" encoding="UTF-8" standalone="no"?>
<!-- Created with Inkscape (http://www.inkscape.org/) -->

<svg
   xmlns:dc="http://purl.org/dc/elements/1.1/"
   xmlns:cc="http://creativecommons.org/ns#"
   xmlns:rdf="http://www.w3.org/1999/02/22-rdf-syntax-ns#"
   xmlns:svg="http://www.w3.org/2000/svg"
   xmlns="http://www.w3.org/2000/svg"
   xmlns:sodipodi="http://sodipodi.sourceforge.net/DTD/sodipodi-0.dtd"
   xmlns:inkscape="http://www.inkscape.org/namespaces/inkscape"
   width="83.591034mm"
   height="65.616669mm"
   viewBox="0 0 83.591033 65.61667"
   version="1.1"
   id="svg8"
   inkscape:version="0.92.4 (5da689c313, 2019-01-14)"
   sodipodi:docname="list.svg">
  <defs
     id="defs2" />
  <sodipodi:namedview
     id="base"
     pagecolor="#ffffff"
     bordercolor="#666666"
     borderopacity="1.0"
     inkscape:pageopacity="0.0"
     inkscape:pageshadow="2"
     inkscape:zoom="2"
     inkscape:cx="330.86244"
     inkscape:cy="255.28338"
     inkscape:document-units="mm"
     inkscape:current-layer="layer1"
     showgrid="false"
     inkscape:window-width="1440"
     inkscape:window-height="847"
     inkscape:window-x="1358"
     inkscape:window-y="-8"
     inkscape:window-maximized="1" />
  <metadata
     id="metadata5">
    <rdf:RDF>
      <cc:Work
         rdf:about="">
        <dc:format>image/svg+xml</dc:format>
        <dc:type
           rdf:resource="http://purl.org/dc/dcmitype/StillImage" />
        <dc:title></dc:title>
      </cc:Work>
    </rdf:RDF>
  </metadata>
  <g
     inkscape:label="Layer 1"
     inkscape:groupmode="layer"
     id="layer1"
     transform="translate(-71.004706,-153.94578)">
    <path
       style="fill:#020202;stroke-width:0.26458335"
       d="m 71.706194,219.01408 -0.69714,-0.54837 V 214.028 c 0,-3.96316 0.0517,-4.48453 0.48385,-4.87558 0.41056,-0.37155 1.16982,-0.43789 5.01208,-0.43789 5.74221,0 5.35199,-0.39836 5.35199,5.46363 v 4.28755 l -0.69714,0.54837 c -0.63597,0.50025 -1.05074,0.54837 -4.72682,0.54837 -3.67609,0 -4.09085,-0.0481 -4.72682,-0.54837 z m 15.72334,-1.78718 c -2.38428,-1.2787 -2.44353,-4.78405 -0.10673,-6.31518 0.69213,-0.4535 2.33228,-0.4774 32.766446,-0.4774 30.43418,0 32.07433,0.0239 32.76646,0.4774 1.6897,1.10714 2.25097,3.43094 1.22833,5.0856 -1.12815,1.8254 1.10431,1.71305 -34.0389,1.71305 -30.209516,0 -31.756906,-0.0229 -32.615606,-0.48347 z m -15.89131,-16.44987 c -0.48641,-0.4864 -0.52917,-0.88194 -0.52917,-4.89479 0,-5.78201 -0.35805,-5.42396 5.42396,-5.42396 5.77768,0 5.42396,-0.35071 5.42396,5.37784 0,5.76525 0.29716,5.47008 -5.50716,5.47008 -3.92965,0 -4.32602,-0.0436 -4.81159,-0.52917 z m 15.6894,-1.84137 c -1.62853,-0.99298 -2.16177,-3.29622 -1.14803,-4.9588 1.08511,-1.77965 -1.22423,-1.66649 34.009656,-1.66649 35.2339,0 32.92456,-0.11316 34.00967,1.66649 0.66083,1.08379 0.66083,2.72697 0,3.81076 -1.0852,1.77981 1.23013,1.6666 -34.06267,1.66551 -31.233216,-10e-4 -31.980876,-0.0128 -32.808626,-0.51747 z m -15.6894,-16.41488 c -0.48641,-0.4864 -0.52917,-0.88194 -0.52917,-4.89479 0,-5.77768 -0.35072,-5.42396 5.37784,-5.42396 5.76524,0 5.47008,-0.29717 5.47008,5.50716 0,5.68558 0.35019,5.34076 -5.42396,5.34076 -4.01285,0 -4.40839,-0.0428 -4.89479,-0.52917 z m 15.6894,-1.84137 c -1.62853,-0.99298 -2.16177,-3.29622 -1.14803,-4.9588 1.08511,-1.77966 -1.22423,-1.6665 34.009656,-1.6665 35.2339,0 32.92456,-0.11316 34.00967,1.6665 0.66083,1.08379 0.66083,2.72697 0,3.81076 -1.0852,1.77981 1.23013,1.6666 -34.06267,1.66551 -31.233216,-0.001 -31.980876,-0.0128 -32.808626,-0.51747 z m -15.78069,-16.36957 c -0.37043,-0.40932 -0.43788,-1.16033 -0.43788,-4.87559 v -4.39173 l 0.69714,-0.54837 c 0.63597,-0.50025 1.05073,-0.54837 4.72682,-0.54837 3.67608,0 4.09085,0.0481 4.72682,0.54837 l 0.69714,0.54837 v 4.28755 c 0,5.86612 0.39765,5.46363 -5.39796,5.46363 -4.09539,0 -4.62003,-0.0506 -5.01208,-0.48386 z m 16.66546,-1.37354 c -2.98885,-0.90419 -3.42788,-5.1828 -0.68286,-6.65497 0.8587,-0.46053 2.40609,-0.48347 32.615606,-0.48347 35.14321,0 32.91075,-0.11235 34.0389,1.71305 1.02262,1.65462 0.46139,3.97839 -1.22825,5.0856 -0.69092,0.45276 -2.36101,0.47975 -32.35795,0.52295 -17.39618,0.0251 -31.969626,-0.0574 -32.385446,-0.18316 z"
       id="path880"
       inkscape:connector-curvature="0" />
  </g>
</svg>
