<svg width="100%" height="100%" viewBox="0 0 1024 1024" version="1.1" xmlns="http://www.w3.org/2000/svg" xmlns:xlink="http://www.w3.org/1999/xlink" xml:space="preserve" xmlns:serif="http://www.serif.com/" style="fill-rule:evenodd;clip-rule:evenodd;stroke-linejoin:round;stroke-miterlimit:2;">
	<g transform="matrix(1,0,0,1,-1118.19,-1133.4)">
		<g id="null" transform="matrix(1,0,0,1,1118.19,1133.4)">
			<rect x="0" y="0" width="1024" height="1024" style="fill:none;"/>
			<clipPath id="_clip1">
				<rect x="0" y="0" width="1024" height="1024"/>
			</clipPath>
			<g clip-path="url(#_clip1)">
				<g transform="matrix(6.43291,0,0,6.43291,-5707.88,-737.216)">
					<path d="M956.21,115.31C974.18,112.86 992.94,116.81 1008.37,126.33C1029.5,139.13 1044.1,162.25 1046.04,186.95C1047.9,205.79 1042.54,225.12 1031.55,240.49C1024.63,249.87 1015.85,257.93 1005.63,263.58C987.83,273.77 965.96,276.31 946.2,270.97C933.39,267.7 921.76,260.76 911.98,251.94C899.54,239.66 890.57,223.54 888.2,206.1C885.66,189.59 888.5,172.32 896.24,157.51C907.86,134.87 930.92,118.51 956.21,115.31M955.48,135.6C930.99,139.96 910.8,161.33 907.74,186C905.27,203.08 910.76,220.97 922.25,233.81C930.56,243.1 941.84,249.89 954.08,252.47C966.08,255.05 978.9,253.92 990.2,249.08C1006.32,242.25 1019.18,228.01 1024.06,211.16C1028.35,196.66 1026.96,180.49 1019.96,167.06C1013.13,153.42 1000.78,142.66 986.34,137.78C976.5,134.27 965.72,133.66 955.48,135.6Z" style="fill:rgb(0,143,206);fill-rule:nonzero;"/>
				</g>
				<g transform="matrix(6.43291,0,0,6.43291,-5707.88,-737.216)">
					<path d="M945.57,151.66C953.72,144.28 965.8,143.16 976.14,145.5C986.21,147.49 994.24,156.24 995.9,166.29C997.67,176.33 996.7,187.83 989.77,195.83C986.54,199.93 981.4,202.1 978.57,206.55C977.11,208.74 977.08,211.48 976.64,213.99C970.02,214.01 963.41,214.01 956.8,213.99C956.93,205.53 959.79,196.94 965.75,190.78C968.56,187.23 973.13,185.44 975.57,181.58C977.14,177.54 977.12,172.91 976.07,168.75C974.91,164.93 970.44,164.21 967.01,164.31C963.93,164.4 960.18,164.53 958.14,167.2C957.17,169.42 957.09,171.9 956.74,174.26C950.13,174.23 943.52,174.26 936.92,174.24C937.05,166.03 939.33,157.37 945.57,151.66Z" style="fill:rgb(0,143,206);fill-rule:nonzero;"/>
				</g>
				<g transform="matrix(6.43291,0,0,6.43291,-5707.88,-737.216)">
					<path d="M964.26,224.34C968.84,223.02 974.35,225.5 975.97,230.09C978.28,235.03 975.48,241.56 970.29,243.25C964.97,245.47 958.2,241.77 957.17,236.14C955.85,231.19 959.28,225.52 964.26,224.34Z" style="fill:rgb(0,143,206);fill-rule:nonzero;"/>
				</g>
			</g>
		</g>
	</g>
</svg>