<svg width="100%" height="100%" viewBox="0 0 1024 1024" version="1.1" xmlns="http://www.w3.org/2000/svg" xmlns:xlink="http://www.w3.org/1999/xlink" xml:space="preserve" xmlns:serif="http://www.serif.com/" style="fill-rule:evenodd;clip-rule:evenodd;stroke-linejoin:round;stroke-miterlimit:2;">
	<rect id="red" x="0" y="0" width="1024" height="1024" style="fill:none;"/>
	<clipPath id="_clip1">
		<rect id="red1" serif:id="red" x="0" y="0" width="1024" height="1024"/>
	</clipPath>
	<g clip-path="url(#_clip1)">
		<g transform="matrix(6.43374,0,0,6.43374,-718.8,-737.163)">
			<path d="M179.39,115.52C205.77,111.28 233.86,121.57 251.15,141.94C272.51,165.42 276.87,202.22 262.16,230.26C252.18,250.17 233.33,265.32 211.83,271.04C184.46,278.56 153.16,270.09 133.94,249.05C119.77,234.94 111.92,214.96 111.73,195.03C111.51,178.2 116.85,161.34 126.72,147.71C139.02,130.52 158.43,118.51 179.39,115.52M180.42,135.5C162.21,138.74 145.85,151.07 137.8,167.74C126.65,189.55 130.87,218.28 148.44,235.48C162.65,250.95 185.68,257.32 205.92,251.99C222.05,247.99 236.21,236.89 243.95,222.19C251.38,208.44 252.9,191.72 248.38,176.79C243.7,161.43 232.52,148.19 218.2,140.94C206.69,134.97 193.14,133.16 180.42,135.5Z" style="fill:rgb(255,51,68);fill-rule:nonzero;"/>
		</g>
		<g transform="matrix(6.43374,0,0,6.43374,-718.8,-737.163)">
			<path d="M212.33,159.12C216.76,163.84 221.6,168.18 225.95,172.97C225.99,174.25 224.46,174.9 223.8,175.85C217.59,181.98 211.43,188.14 205.31,194.34C212.34,201.34 219.38,208.33 226.35,215.4C221.66,220.03 217.04,224.71 212.36,229.35C205.35,222.34 198.32,215.35 191.34,208.31C184.3,215.28 177.28,222.26 170.34,229.32C165.61,224.65 160.95,219.9 156.2,215.24C163.15,208.19 170.2,201.23 177.19,194.21C170.18,187.14 163.1,180.13 156.08,173.07C160.73,168.4 165.39,163.73 170.07,159.08C177.08,166.12 184.16,173.08 191.11,180.18C198.29,173.27 205.2,166.08 212.33,159.12Z" style="fill:rgb(255,51,68);fill-rule:nonzero;"/>
		</g>
	</g>
</svg>