<svg width="100%" height="100%" viewBox="0 0 1024 1024" version="1.1" xmlns="http://www.w3.org/2000/svg" xmlns:xlink="http://www.w3.org/1999/xlink" xml:space="preserve" xmlns:serif="http://www.serif.com/" style="fill-rule:evenodd;clip-rule:evenodd;stroke-linejoin:round;stroke-miterlimit:2;">
	<g transform="matrix(1,0,0,1,0,-1133.4)">
		<g id="yellow" transform="matrix(1,0,0,1,0,1133.4)">
			<rect x="0" y="0" width="1024" height="1024" style="fill:none;"/>
			<clipPath id="_clip1">
				<rect x="0" y="0" width="1024" height="1024"/>
			</clipPath>
			<g clip-path="url(#_clip1)">
				<g transform="matrix(6.43209,0,0,6.43209,-2381.42,-737.14)">
					<path d="M439.19,115.31C457.46,112.82 476.54,116.97 492.11,126.85C507.33,136.32 519.14,151.16 524.94,168.13C530.28,183.3 530.76,200.12 526.44,215.6C520.83,235.75 506.9,253.4 488.64,263.58C473.41,272.23 455.23,275.45 437.93,272.83C421.18,270.5 405.6,262.19 393.48,250.54C382.04,238.7 373.86,223.54 371.32,207.2C367.97,187.43 372.5,166.45 383.75,149.84C396.24,131.18 416.88,118.18 439.19,115.31M438.48,135.6C422.97,138.51 408.78,147.92 400.19,161.16C391.88,173.2 388.64,188.49 390.75,202.92C393.79,224.74 409.92,244.01 430.89,250.8C445.99,255.82 463.15,254.59 477.24,247.13C489.33,240.9 499.18,230.35 504.55,217.85C510.91,203.41 511.11,186.37 505.05,171.8C498.73,155.78 485.03,142.78 468.58,137.59C458.95,134.24 448.47,133.69 438.48,135.6Z" style="fill:rgb(235,165,32);fill-rule:nonzero;"/>
				</g>
				<g transform="matrix(6.43209,0,0,6.43209,-2381.42,-737.14)">
					<path d="M439.95,154.37C446.55,154.37 453.15,154.39 459.75,154.36L459.75,204.14C453.13,204.11 446.5,204.15 439.88,204.12C439.91,187.53 439.78,170.95 439.95,154.37Z" style="fill:rgb(235,165,32);fill-rule:nonzero;"/>
				</g>
				<g transform="matrix(6.43209,0,0,6.43209,-2381.42,-737.14)">
					<path d="M447.3,214.33C452.72,212.82 458.69,216.51 459.54,222.11C460.86,227.93 455.94,234.05 449.96,233.97C444.31,234.16 439.06,228.66 439.9,222.99C440.27,218.94 443.38,215.36 447.3,214.33Z" style="fill:rgb(235,165,32);fill-rule:nonzero;"/>
				</g>
			</g>
		</g>
	</g>
</svg>